<svg width="107" height="80" viewBox="0 0 107 80" fill="none" xmlns="http://www.w3.org/2000/svg">
<g clip-path="url(#clip0_247_1972)">
<path d="M96.8397 27.9568C93.7618 26.9212 90.7711 25.5803 87.6423 24.9262C79.7205 23.2727 72.1511 24.5991 65.4756 29.1851C62.9501 30.9221 61.0895 33.6548 59.0073 36.0059C57.2122 38.0336 55.5333 40.1667 53.6546 42.4342C51.6959 40.1158 49.9189 37.8446 47.9603 35.737C45.5837 33.1823 43.4361 30.1335 40.5254 28.4183C31.5824 23.1383 22.1706 23.0801 12.7261 27.3645C12.0829 27.6552 11.4543 27.9786 10.375 28.5055C11.5487 26.0563 12.5226 24.0177 13.5038 21.9791C14.2887 20.3438 15.2553 18.774 15.8295 17.0697C17.501 12.1313 21.5783 10.0817 26.0552 9.18053C31.8295 8.02132 37.5565 8.68633 42.4368 12.4801C43.2471 13.1088 43.8685 14.2389 44.1411 15.2528C44.7043 17.335 44.9732 19.5008 45.4493 22.0845C46.7429 21.7465 47.9712 21.6084 49.0323 21.1106C52.2664 19.5989 55.4097 19.4935 58.5894 21.2305C59.1926 21.5612 59.9194 21.7065 60.6062 21.8301C61.7872 22.0445 62.3359 21.5757 62.4231 20.2893C62.5358 18.6068 62.7538 16.9025 63.1935 15.2818C63.4588 14.3007 64.0402 13.2432 64.7961 12.5782C69.4438 8.47919 75.0109 8.38835 80.727 9.20234C81.8535 9.36223 82.9619 9.72198 84.0484 10.0854C87.1917 11.1392 89.6737 12.8399 91.0545 16.1104C92.5299 19.6098 94.4195 22.9312 96.1202 26.3361C96.4036 26.903 96.6362 27.4917 96.8433 27.9605L96.8397 27.9568Z" fill="#262626"/>
<path d="M51.1744 54.6904C51.1126 68.819 39.8367 80.0295 25.7226 79.9932C11.6522 79.9568 0.278169 68.5937 0.28907 54.5887C0.299972 40.5582 11.9684 28.9625 25.9116 29.1187C40.0183 29.275 51.2325 40.6309 51.1744 54.6904ZM25.759 71.2573C35.1562 71.2573 42.7474 63.6806 42.7329 54.3125C42.7183 44.8934 35.1707 37.3822 25.7299 37.3895C16.4671 37.3967 8.91592 44.9589 8.86504 54.2761C8.81417 63.7024 16.329 71.2537 25.7553 71.2573H25.759Z" fill="#FFFFFF"/>
<path d="M56.1211 54.584C56.1284 40.5245 67.4697 29.1468 81.4965 29.125C95.4543 29.1032 106.926 40.5282 107.003 54.5295C107.083 68.5781 95.5851 80.043 81.4602 80.0067C67.3353 79.9667 56.1138 68.709 56.1211 54.5877V54.584ZM98.4268 54.3587C98.4268 44.867 90.9664 37.3885 81.5074 37.3994C72.1756 37.4067 64.5335 45.0851 64.559 54.4278C64.5844 63.7051 72.1538 71.2527 81.4566 71.2672C90.9083 71.2854 98.4232 63.7923 98.4232 54.3587H98.4268Z" fill="#FFFFFF"/>
<path d="M83.491 4.69852C77.2298 3.12141 71.3865 3.51024 65.7031 6.17388C66.2409 3.55021 69.1844 0.995588 72.2659 0.37056C76.7356 -0.537912 80.9945 1.01739 83.491 4.70215V4.69852Z" fill="#FFFFFF"/>
<path d="M24.0273 4.14185C26.1604 1.40917 29.0457 -0.18611 32.6615 0.0173881C36.6769 0.242689 39.7366 2.19772 41.6844 5.76256C38.7627 5.13027 35.9101 4.22906 32.9994 3.96742C30.0414 3.69851 27.0289 4.05827 24.0273 4.14185Z" fill="#FFFFFF"/>
</g>
<defs>
<clipPath id="clip0_247_1972">
<rect width="106.713" height="80" fill="white" transform="translate(0.289062)"/>
</clipPath>
</defs>
</svg>
