<svg width="81" height="80" viewBox="0 0 81 80" fill="none" xmlns="http://www.w3.org/2000/svg">
<g clip-path="url(#clip0_247_1959)">
<path d="M49.945 48.5773C53.0876 54.3177 56.155 59.9131 59.2171 65.5086C61.4874 69.6602 63.7551 73.8145 66.0121 77.9715C66.8333 79.4824 66.53 79.9977 64.8206 79.9977C48.7239 80.003 32.6273 80.003 16.5307 79.9977C14.9581 79.9977 14.6146 79.4636 15.3392 78.1352C20.94 67.8675 26.5515 57.6052 32.1604 47.3455C32.2463 47.1899 32.367 47.0557 32.528 46.833C33.9235 47.6434 34.726 49.887 36.6099 49.2966C38.1208 48.8215 39.3767 47.5388 41.0567 46.4062C41.7867 47.1952 42.7233 48.2607 43.7189 49.267C45.8363 51.4086 46.9822 51.4086 49.1104 49.3368C49.3304 49.1221 49.5639 48.9235 49.945 48.58V48.5773Z" fill="#262626"/>
<path d="M45.082 2.77344H67.9951C67.6651 3.26186 67.4853 3.58659 67.2491 3.86569C65.7758 5.6047 64.2783 7.32225 62.8103 9.06394C61.5087 10.6097 61.5275 12.0938 62.8425 13.645C64.5144 15.6121 66.1971 17.5685 68.0757 19.7583H45.082V2.77344Z" fill="#FFFFFF"/>
<path d="M11.8087 79.8943H0.421875C5.10487 71.5213 9.65904 63.3844 14.2186 55.2315C16.1902 56.7128 18.3577 56.5992 20.7211 54.8906C20.7614 54.9094 20.8097 54.9201 20.8419 54.947C22.6238 56.4552 22.9575 58.2255 21.8429 60.258C18.8882 65.6575 15.9093 71.0436 13.0083 76.47C12.4635 77.4897 12.2246 78.6732 11.8087 79.8916V79.8943Z" fill="#262626"/>
<path d="M60.476 54.6511C62.9253 56.6442 65.1716 56.8365 67.2147 55.2281C71.7743 63.3838 76.3231 71.5179 81.0034 79.8883H69.6568C69.1926 78.6162 68.9001 77.3683 68.3123 76.2734C65.1322 70.3371 61.8984 64.4304 58.6324 58.5424C58.1654 57.6998 58.1251 57.1684 58.9034 56.5136C59.5072 56.0064 59.942 55.2952 60.476 54.6484V54.6511Z" fill="#262626"/>
<path d="M48.5596 46.0287C47.8431 46.6487 47.1695 47.231 46.2812 48.0039C45.2104 46.8687 44.0913 45.6208 42.9051 44.4373C41.413 42.9506 39.9746 42.9935 38.4932 44.4856C37.841 45.1404 37.1782 45.7899 36.2765 46.6862C35.6404 45.9455 34.9883 45.2719 34.4569 44.5151C34.2637 44.2387 34.1913 43.6725 34.3442 43.388C36.0806 40.1247 37.8518 36.8801 39.6552 33.6517C40.3046 32.4896 41.1634 32.5272 41.8317 33.7402C44.0484 37.755 46.2382 41.7832 48.5596 46.0314V46.0287Z" fill="#FFFFFF"/>
<path d="M42.0853 30.0173H39.2943V28.6781C39.2943 19.8703 39.2943 11.0625 39.297 2.25744C39.297 1.81195 39.1977 1.27254 39.407 0.945129C39.6834 0.518427 40.2336 -0.0183059 40.6415 0.000479714C41.1299 0.0246327 41.6398 0.537212 42.0397 0.939762C42.2087 1.10883 42.139 1.53822 42.139 1.84952C42.1443 10.9686 42.1417 20.0904 42.139 29.2095C42.139 29.4698 42.1041 29.7274 42.0826 30.0173H42.0853Z" fill="#FFFFFF"/>
<path d="M20.6341 43.8491C21.1091 44.5764 21.3909 44.9575 21.6217 45.3681C22.7864 47.4291 23.9323 49.4982 25.0917 51.5593C25.6624 52.5755 25.5854 53.5658 24.8609 54.5301C23.621 53.6257 22.4966 52.4207 21.1145 51.8947C19.405 51.248 18.5274 53.0836 17.1748 54.0792C16.7642 53.5425 16.3617 53.0192 15.8438 52.3402C17.3224 49.7183 18.9004 46.9219 20.6341 43.8438V43.8491Z" fill="#262626"/>
<path d="M65.6756 52.512C65.171 53.0648 64.7255 53.5506 64.2988 54.0175C61.8782 52.2749 59.3278 52.4825 56.6477 54.6401C55.7353 53.7116 55.5367 52.8045 56.2962 51.5915C57.5494 49.5868 58.6309 47.4774 59.793 45.4164C60.0264 45.0031 60.2975 44.6113 60.7832 43.8438C61.7145 45.47 62.5008 46.8253 63.271 48.1886C64.06 49.5868 64.8356 50.9957 65.6756 52.512Z" fill="#262626"/>
</g>
<defs>
<clipPath id="clip0_247_1959">
<rect width="80.5797" height="80" fill="white" transform="translate(0.421875)"/>
</clipPath>
</defs>
</svg>
