<svg width="137" height="137" viewBox="0 0 137 137" fill="none" xmlns="http://www.w3.org/2000/svg">
<g clip-path="url(#clip0_20_5041)">
<path d="M0 17.1221L17.1221 0H34.2441V17.1221L17.1221 34.2441H0V17.1221Z" fill="#8F5BFF"/>
<path d="M34.2441 0H17.1221V17.1221H34.2441V0Z" fill="#262626"/>
<path d="M0 51.378L17.1221 34.2441H34.2441V51.378L17.1221 68.5H0V51.378Z" fill="#8F5BFF"/>
<path d="M34.2441 34.2441H17.1221V51.3662H34.2441V34.2441Z" fill="#262626"/>
<path d="M0 85.6221L17.1221 68.5H34.2441V85.6221L17.1221 102.744H0V85.6221Z" fill="#8F5BFF"/>
<path d="M34.2441 68.5H17.1221V85.6221H34.2441V68.5Z" fill="#262626"/>
<path d="M0 119.866L17.1221 102.744H34.2441V119.866L17.1221 137H0V119.866Z" fill="#8F5BFF"/>
<path d="M34.2441 102.744H17.1221V119.866H34.2441V102.744Z" fill="#262626"/>
<path d="M34.2441 17.1221L51.378 0H68.5V17.1221L51.378 34.2441H34.2441V17.1221Z" fill="#8F5BFF"/>
<path d="M68.5 0H51.3779V17.1221H68.5V0Z" fill="#262626"/>
<path d="M34.2441 51.378L51.378 34.2441H68.5V51.378L51.378 68.5H34.2441V51.378Z" fill="#8F5BFF"/>
<path d="M68.5 34.2441H51.3779V51.3662H68.5V34.2441Z" fill="#262626"/>
<path d="M34.2441 85.6221L51.378 68.5H68.5V85.6221L51.378 102.744H34.2441V85.6221Z" fill="#8F5BFF"/>
<path d="M68.5 68.5H51.3779V85.6221H68.5V68.5Z" fill="#262626"/>
<path d="M68.5 17.1221L85.6221 0H102.744V17.1221L85.6221 34.2441H68.5V17.1221Z" fill="#8F5BFF"/>
<path d="M102.744 0H85.6221V17.1221H102.744V0Z" fill="#262626"/>
<path d="M102.744 17.1221L119.866 0H137V17.1221L119.866 34.2441H102.744V17.1221Z" fill="#8F5BFF"/>
<path d="M136.988 0H119.866V17.1221H136.988V0Z" fill="#262626"/>
<path d="M68.5 51.378L85.6221 34.2441H102.744V51.378L85.6221 68.5H68.5V51.378Z" fill="#8F5BFF"/>
<path d="M102.744 34.2441H85.6221V51.3662H102.744V34.2441Z" fill="#262626"/>
</g>
<defs>
<clipPath id="clip0_20_5041">
<rect width="137" height="137" fill="white"/>
</clipPath>
</defs>
</svg>
