<svg width="34" height="28" viewBox="0 0 34 28" fill="none" xmlns="http://www.w3.org/2000/svg">
<path d="M10.6961 27.8135C23.5231 27.8135 30.5409 17.1839 30.5409 7.96867C30.5409 7.66985 30.5343 7.36438 30.521 7.06555C31.8862 6.07827 33.0643 4.8554 34 3.45438C32.7286 4.02005 31.3787 4.3895 29.9964 4.55008C31.4518 3.67766 32.5416 2.30712 33.0637 0.692541C31.6944 1.50399 30.1971 2.0764 28.6357 2.38524C27.5837 1.26742 26.1927 0.527286 24.6779 0.279277C23.163 0.0312673 21.6087 0.289192 20.2551 1.01317C18.9016 1.73716 17.8242 2.88687 17.1896 4.28456C16.555 5.68225 16.3985 7.25008 16.7443 8.74563C13.9719 8.6065 11.2596 7.88629 8.78331 6.63168C6.30704 5.37707 4.12207 3.61607 2.37004 1.46285C1.47957 2.99813 1.20708 4.81487 1.60796 6.54383C2.00884 8.2728 3.05301 9.78426 4.52824 10.771C3.42072 10.7359 2.33747 10.4377 1.36797 9.90109V9.98742C1.36698 11.5986 1.92397 13.1604 2.94427 14.4073C3.96457 15.6542 5.38521 16.5093 6.96469 16.8273C5.93874 17.108 4.86197 17.1489 3.8177 16.9468C4.26339 18.3324 5.13056 19.5443 6.29817 20.4133C7.46579 21.2824 8.87559 21.7652 10.3308 21.7945C7.86027 23.7351 4.80841 24.7877 1.6668 24.7827C1.10966 24.7819 0.553065 24.7477 0 24.6805C3.19155 26.728 6.90417 27.8155 10.6961 27.8135Z" fill="white"/>
</svg>
